<svg xmlns="http://www.w3.org/2000/svg" viewBox="-15 -25 45 45" width="500" height="500">
  <defs>
    <style>
      .body-magic {
        transform-origin: 7.5px 15px;
        animation: float-body 3s infinite ease-in-out;
      }
      .arm-wand {
        transform-origin: 14px 10px;
        animation: wave-wand 3s infinite ease-in-out;
      }
      .arm-l-magic {
        transform-origin: 1px 10px;
        animation: wave-magic 3s infinite ease-in-out;
      }
      .eyes-magic {
        animation: blink-magic 3s infinite;
      }
      .magic-star {
        opacity: 0;
        animation: sparkle-magic 2s infinite ease-out;
      }
      .s1 { animation-delay: 0s; fill: #FFD700; }
      .s2 { animation-delay: 0.5s; fill: #40C4FF; }
      .s3 { animation-delay: 1s; fill: #B388FF; }
      .s4 { animation-delay: 1.5s; fill: #FF8A80; }

      @keyframes float-body {
        0%, 100% { transform: translateY(0); }
        50% { transform: translateY(-2px); }
      }
      @keyframes wave-wand {
        0%, 100% { transform: rotate(-20deg); }
        50% { transform: rotate(-120deg); }
      }
      @keyframes wave-magic {
        0%, 100% { transform: rotate(20deg); }
        50% { transform: rotate(120deg); }
      }
      @keyframes blink-magic {
        0%, 40% { transform: scaleY(0.1); }
        45%, 95% { transform: scaleY(1); }
        100% { transform: scaleY(0.1); }
      }
      @keyframes sparkle-magic {
        0% { transform: translate(14px, 4px) scale(0) rotate(0deg); opacity: 0; }
        20% { opacity: 1; }
        100% { transform: translate(14px, -15px) scale(1.5) rotate(180deg); opacity: 0; }
      }
    </style>
    <g id="star">
      <polygon points="0,-2 0.5,-0.5 2,0 0.5,0.5 0,2 -0.5,0.5 -2,0 -0.5,-0.5"/>
    </g>
  </defs>

  <rect id="ground-shadow" x="3" y="15" width="9" height="1" fill="#000000" opacity="0.4"/>

  <!-- Magic Stars -->
  <g>
    <use href="#star" class="magic-star s1"/>
    <use href="#star" class="magic-star s2" transform="translate(-10, 0)"/>
    <use href="#star" class="magic-star s3" transform="translate(5, -5)"/>
    <use href="#star" class="magic-star s4" transform="translate(-5, -10)"/>
  </g>

  <g class="body-magic">
    <g id="legs" fill="#DE886D">
      <rect x="3" y="13" width="1" height="2"/>
      <rect x="5" y="13" width="1" height="2"/>
      <rect x="9" y="13" width="1" height="2"/>
      <rect x="11" y="13" width="1" height="2"/>
    </g>

    <g id="body-color-group" fill="#DE886D">
      <rect x="2" y="6" width="11" height="7"/>
      <g class="arm-l-magic"><rect x="0" y="9" width="2" height="2"/></g>
    </g>

    <g fill="#000000" class="eyes-magic" transform-origin="7.5px 9px">
      <rect x="4" y="8" width="1" height="2"/>
      <rect x="10" y="8" width="1" height="2"/>
    </g>

    <!-- Wizard Hat -->
    <g transform="translate(7.5, 6)">
      <polygon points="-4,0 4,0 0,-6" fill="#673AB7"/>
      <rect x="-5" y="0" width="10" height="1" fill="#512DA8"/>
      <polygon points="0,-3 0.5,-2.5 1.5,-2.5 0.75,-1.75 1,-0.5 0,-1.25 -1,-0.5 -0.75,-1.75 -1.5,-2.5 -0.5,-2.5" fill="#FFC107"/>
    </g>

    <!-- Wand arm (on top of hat and eyes) -->
    <g class="arm-wand" fill="#DE886D">
      <rect x="13" y="9" width="2" height="2"/>
      <rect x="13.5" y="4" width="1" height="6" fill="#8D6E63"/>
      <rect x="13.5" y="4" width="1" height="1" fill="#FFD700"/>
    </g>
  </g>
</svg>